<svg xmlns="http://www.w3.org/2000/svg" width="487" height="120" viewBox="0 0 487 120" fill="none"><svg x="0" y="0" width="120" height="120" viewBox="0 0 120 120"><rect width="120" height="120" rx="26.8" fill="#f4f6f9"></rect><rect x="0.5" y="0.5" width="119" height="119" rx="26.3" fill="none" stroke="rgba(18,23,42,.06)"></rect><svg x="21" y="21" width="78" height="78" viewBox="21.5 13 66 66"><defs><linearGradient id="gm2" x1="0" y1="0" x2="0" y2="1"><stop stop-color="#2ad08f"></stop><stop offset="1" stop-color="#13b27a"></stop></linearGradient><clipPath id="cm2"><ellipse cx="48" cy="51" rx="25" ry="8"></ellipse></clipPath></defs><path d="M23 60 A 25 8 0 0 0 73 60 L 73 70 A 25 8 0 0 1 23 70 Z" fill="#0b0f1c"></path><ellipse cx="48" cy="60" rx="25" ry="8" fill="#1b2236"></ellipse><path d="M23 51 A 25 8 0 0 0 73 51 L 73 61 A 25 8 0 0 1 23 61 Z" fill="#0b0f1c"></path><ellipse cx="48" cy="51" rx="25" ry="8" fill="#1b2236"></ellipse><ellipse cx="48" cy="48" rx="19" ry="4.5" fill="rgba(0,0,0,.55)" clip-path="url(#cm2)"></ellipse><g transform="rotate(-12 60 26)"><path d="M35 24 A 25 8 0 0 0 85 24 L 85 34 A 25 8 0 0 1 35 34 Z" fill="#0a7d57"></path><ellipse cx="60" cy="24" rx="25" ry="8" fill="url(#gm2)"></ellipse></g></svg></svg><text x="140" y="60" font-family="Poppins, -apple-system, sans-serif" font-weight="600" font-size="72" letter-spacing="-1.5" dominant-baseline="central"><tspan fill="#12172a">Save</tspan><tspan fill="#0e9f6e">First</tspan></text></svg>